<svg width="150" height="95" viewBox="0 0 150 95" fill="none" xmlns="http://www.w3.org/2000/svg">
<path d="M79.4362 73.2381C79.4365 76.9722 78.582 80.6367 76.9632 83.8431C75.3446 87.0495 73.0221 89.6782 70.242 91.4504C67.462 93.2225 64.3281 94.0722 61.1727 93.9091C58.0173 93.7461 54.9581 92.5765 52.3194 90.5243C51.2253 89.5654 50.1806 88.53 49.1909 87.4238C46.6697 84.9108 43.1364 84.0405 39.603 84.0405C36.4193 84.0405 33.2079 84.6389 30.8524 86.7602C29.7209 88.311 28.3996 89.6529 26.9325 90.7418C26.9023 90.7583 26.8743 90.7804 26.8497 90.8071V90.8179C26.824 90.8399 26.7963 90.8582 26.7669 90.8723C26.7485 90.8941 26.7393 90.8941 26.7393 90.8941C23.9962 92.8851 20.8393 93.9359 17.6206 93.9292H17.501C13.9125 93.9278 10.4111 92.6228 7.47075 90.1907C4.53045 87.7585 2.29336 84.317 1.06234 80.3318C-0.168677 76.3467 -0.334131 72.0106 0.588393 67.9107C1.51092 63.8106 3.47685 60.145 6.21998 57.4097C7.20019 55.8227 7.86109 53.9921 8.1523 52.0574C8.15477 51.9845 8.16091 51.9118 8.17069 51.8398C8.40998 50.2786 8.52397 48.6942 8.51115 47.1076C8.51115 42.952 7.80264 38.8073 5.7047 35.8592C4.71219 34.6359 3.78706 33.3387 2.93504 31.9754C1.21874 28.851 0.247564 25.2367 0.123938 21.514C0.000311315 17.7913 0.728817 14.0981 2.23263 10.8241C3.73645 7.55015 5.9598 4.81673 8.66814 2.9122C11.3765 1.00767 14.4694 0.0026425 17.6206 0.00317404H17.8139C22.4228 0.0658897 26.825 2.27469 30.0652 6.15032C33.3055 10.026 35.1224 15.2558 35.1219 20.7052V20.8031C35.1073 24.8107 34.1066 28.7266 32.2418 32.0733C31.4288 33.3652 30.5532 34.6001 29.6194 35.7721C27.4938 38.7528 26.7577 42.9193 26.7577 47.1076C26.7506 48.447 26.8275 49.785 26.9877 51.1109C27.2189 53.5385 28.0081 55.8449 29.2697 57.7795C29.6562 58.3343 30.0702 58.8674 30.4843 59.4005C30.5395 59.444 30.5855 59.4984 30.6315 59.5419C32.9779 61.859 36.3181 62.4682 39.603 62.4682C39.9894 62.4682 40.3851 62.4573 40.7716 62.4356C43.8725 62.2615 46.8906 61.3586 49.1081 59.1394C50.1464 57.9699 51.2467 56.8799 52.4023 55.8758C54.573 54.2097 57.0289 53.1329 59.5936 52.7229C62.1583 52.3129 64.7681 52.5797 67.2351 53.5042C67.2552 53.5105 67.274 53.5216 67.2903 53.537C70.8193 54.8755 73.8975 57.505 76.0805 61.046C78.2636 64.587 79.4387 68.8564 79.4362 73.2381Z" fill="#DF232B"/>
<path d="M79.4362 20.7021C79.4365 24.7494 78.4333 28.708 76.5506 32.0884C74.6678 35.4686 71.9883 38.1222 68.8433 39.7208C65.6983 41.3194 62.226 41.793 58.8557 41.0829C55.4855 40.3728 52.3653 38.5102 49.881 35.7255L49.8533 35.6929C48.172 33.8031 46.8266 31.5354 45.896 29.0229C44.9653 26.5105 44.4682 23.8036 44.4337 21.0611V21.0209C44.426 20.916 44.423 20.8107 44.4246 20.7054C44.4244 17.0995 45.2209 13.556 46.7352 10.4259C48.2496 7.29586 50.4294 4.68776 53.0584 2.85992C55.6876 1.03206 58.675 0.0478704 61.7247 0.00477474C64.7746 -0.038321 67.781 0.861173 70.4463 2.61421C70.5107 2.6686 70.5384 2.69037 70.5384 2.69037C73.5947 4.72671 76.0606 7.80514 77.6143 11.5238C77.6233 11.5479 77.6357 11.57 77.6511 11.5891C78.828 14.4253 79.4387 17.543 79.4362 20.7021Z" fill="#DF232B"/>
<g style="mix-blend-mode:screen" opacity="0.6">
<g style="mix-blend-mode:screen">
<path d="M19.6985 0.293711H19.036C18.6035 0.261075 17.9777 0.326365 17.1864 0.380759C16.2413 0.495252 15.3038 0.684223 14.38 0.946435C13.1962 1.28729 12.0436 1.7646 10.9386 2.37153C8.80735 3.53279 6.90257 5.20329 5.34427 7.27777C3.78598 9.35226 2.60794 11.7858 1.88437 14.4251C1.34132 16.3698 1.06183 18.4038 1.05623 20.4518C1.01903 22.4966 1.24552 24.5362 1.72792 26.5003C2.19232 28.3956 2.90321 30.194 3.83507 31.8309C4.74602 33.3865 6.01585 34.7246 6.92679 36.4434C7.7387 38.0133 8.28842 39.7526 8.54624 41.5672C8.77807 43.0525 8.88901 44.5607 8.8775 46.071C8.88362 47.2253 8.81285 48.3783 8.66586 49.5195C8.57932 50.2499 8.4533 50.973 8.2886 51.6844C8.19658 52.0434 8.13219 52.2718 8.10458 52.3806C8.11378 52.3262 8.13217 52.2174 8.15057 52.0542C8.15305 51.9813 8.15919 51.9087 8.16897 51.8367C8.40827 50.2755 8.52229 48.691 8.50945 47.1045C8.50945 42.9488 7.80092 38.8041 5.70298 35.856C4.71047 34.6328 3.78538 33.3355 2.93335 31.9723C1.21705 28.8477 0.245842 25.2335 0.122215 21.5109C-0.00141177 17.7881 0.727123 14.0949 2.23094 10.821C3.73475 7.54697 5.95811 4.81352 8.66645 2.90899C11.3747 1.00446 14.4677 -0.00053133 17.6189 2.10739e-07H17.8121C18.2254 0.0321046 18.637 0.0902102 19.0451 0.174062C19.4684 0.250213 19.6985 0.293711 19.6985 0.293711Z" fill="white"/>
</g>
</g>
<g style="mix-blend-mode:multiply" opacity="0.25">
<g style="mix-blend-mode:multiply">
<path d="M26.9878 51.1546L26.8957 50.7956C26.8359 50.5618 26.7439 50.2191 26.6583 49.7698C26.4077 48.5298 26.2583 47.2643 26.2121 45.9906C26.1299 44.1573 26.2788 42.3198 26.6537 40.5382C26.8638 39.5028 27.1724 38.4988 27.5739 37.5455C28.0126 36.5803 28.5317 35.6692 29.1234 34.8258C29.7059 34.0001 30.3445 33.2528 30.8303 32.5337C31.3344 31.8038 31.8 31.038 32.2243 30.2405C32.6179 29.4806 32.9767 28.6962 33.2991 27.8907C33.5917 27.1292 33.8511 26.3677 34.0646 25.6617C34.4038 24.5012 34.6774 23.3154 34.8836 22.112C35.0354 21.2286 35.1044 20.7097 35.1044 20.7097C35.1748 21.183 35.223 21.6606 35.2489 22.1403C35.3235 23.4189 35.2701 24.7036 35.0897 25.9674C34.8401 27.7846 34.3495 29.544 33.6358 31.1804C33.2349 32.1141 32.7628 33.0026 32.2252 33.8348C31.6529 34.716 31.0613 35.4383 30.5414 36.2118C30.0086 36.9318 29.5382 37.7132 29.1372 38.5441C28.7642 39.3567 28.4513 40.2058 28.2024 41.0821C27.7507 42.6948 27.4358 44.3565 27.262 46.0428C27.1028 47.5462 27.0448 48.8277 27.0181 49.7306L26.9878 51.1546Z" fill="black"/>
</g>
</g>
<g style="mix-blend-mode:screen" opacity="0.6">
<g style="mix-blend-mode:screen">
<path d="M67.2905 53.5337C67.1892 53.5229 66.7476 53.4358 66.0667 53.3379C65.671 53.2835 65.2017 53.24 64.6588 53.2074C64.0582 53.1654 63.4562 53.1617 62.8553 53.1965C62.5241 53.2183 62.1192 53.2291 61.8248 53.2618C61.4567 53.3053 61.0887 53.3379 60.7298 53.3923C59.9559 53.5236 59.1881 53.7016 58.4294 53.9254C57.6263 54.1648 56.8366 54.4627 56.0646 54.8174C55.2726 55.1795 54.5065 55.616 53.7735 56.1228C53.0388 56.6141 52.3429 57.1821 51.6939 57.8199C51.0498 58.4726 50.3781 59.158 49.6788 59.8107C48.9928 60.4548 48.2379 60.9889 47.4336 61.399C46.7291 61.7584 45.9953 62.0318 45.2437 62.2149C44.6219 62.3703 43.9915 62.4722 43.3574 62.5195C42.8704 62.5608 42.3817 62.5645 41.8943 62.5304C41.0938 62.4977 40.6429 62.4651 40.6429 62.4651L40.7718 62.4325C43.8727 62.2584 46.8908 61.3555 49.1083 59.1362C50.1466 57.9668 51.2468 56.8766 52.4024 55.8726C54.5732 54.2066 57.0291 53.1298 59.5938 52.7198C62.1585 52.3098 64.7682 52.5765 67.2353 53.5011C67.2554 53.5074 67.2742 53.5185 67.2905 53.5337Z" fill="white"/>
</g>
</g>
<g style="mix-blend-mode:multiply" opacity="0.25">
<g style="mix-blend-mode:multiply">
<path d="M26.7329 90.8932C26.7329 90.8932 26.9988 90.6844 27.469 90.2557C28.1462 89.6346 28.7887 88.9619 29.3921 88.2421C29.7933 87.7852 30.1549 87.2293 30.6674 86.6462C31.2213 86.0429 31.8434 85.5336 32.516 85.133C34.1346 84.2259 35.874 83.658 37.6569 83.4544C39.7636 83.1469 41.8981 83.2365 43.9811 83.7199C44.5552 83.852 45.1228 84.0209 45.6815 84.2257C46.2575 84.4402 46.8169 84.7129 47.3534 85.0405C48.43 85.7231 49.4471 86.5295 50.3899 87.448C51.3386 88.327 52.2597 89.2244 53.2369 89.9675C53.7197 90.3414 54.2257 90.6719 54.7505 90.9563C55.2854 91.257 55.8341 91.5221 56.3939 91.7505C58.6723 92.6845 61.0946 93.0252 63.4947 92.7491L63.9437 92.6947L64.3863 92.6175C64.7001 92.5609 65.0304 92.5087 65.2991 92.4304C65.8819 92.2894 66.458 92.1126 67.0253 91.9006C68.1665 91.4696 69.2638 90.8905 70.2973 90.1742C72.2687 88.8412 73.993 87.0527 75.3675 84.9154C76.7421 82.7781 77.7387 80.3355 78.298 77.7334C78.7784 75.454 78.9133 73.092 78.6965 70.7569C78.5139 68.7613 78.0936 66.8062 77.4478 64.9499C76.9519 63.5011 76.3188 62.1234 75.5606 60.8432C75.2588 60.2993 74.9432 59.8467 74.6763 59.4464C74.458 59.1001 74.221 58.7709 73.9669 58.4608L73.3439 57.6677L74.0368 58.377C74.3211 58.6543 74.5896 58.9538 74.8401 59.2734C75.2007 59.6833 75.5368 60.1225 75.8458 60.5876C76.7138 61.8254 77.4602 63.1758 78.0708 64.6126C79.868 68.767 80.4194 73.5193 79.635 78.0924C79.1479 80.8737 78.1857 83.5083 76.8074 85.8347C74.5483 89.6358 71.3137 92.4757 67.5829 93.9338C66.9414 94.1818 66.2889 94.3884 65.6285 94.5528C65.2834 94.6518 64.978 94.6997 64.6633 94.7595L64.1618 94.852L63.6621 94.914C61.0003 95.1938 58.3187 94.7901 55.8013 93.7304C54.5578 93.2239 53.3768 92.5244 52.2891 91.6504C51.2171 90.7866 50.285 89.825 49.3741 88.9373C48.522 88.0697 47.6073 87.2922 46.6403 86.6136C46.1788 86.3001 45.6943 86.036 45.1929 85.8249C44.6985 85.6201 44.1958 85.4448 43.6866 85.2994C41.7438 84.7569 39.7443 84.5528 37.7517 84.6935C36.0611 84.7769 34.3917 85.1715 32.804 85.863C32.1566 86.1739 31.549 86.5898 30.9987 87.0988C30.5073 87.5698 30.0693 88.1322 29.636 88.55C28.976 89.2189 28.2704 89.8218 27.526 90.3526C27.0163 90.7203 26.7329 90.8932 26.7329 90.8932Z" fill="black"/>
</g>
</g>
<g style="mix-blend-mode:multiply" opacity="0.25">
<g style="mix-blend-mode:multiply">
<path d="M77.4788 11.2701L77.7687 11.8304C78.0384 12.3652 78.284 12.9164 78.5048 13.4818C79.3042 15.5298 79.7922 17.7281 79.9467 19.9763L79.977 20.5094L79.9844 20.6443C79.9868 20.6805 79.9868 20.7168 79.9844 20.753V20.8183V21.0838C79.9789 21.4392 79.9733 21.8017 79.9678 22.1716C79.9623 22.5415 79.9544 22.9157 79.9439 23.2943C79.9209 23.6783 79.8445 24.0884 79.7957 24.4909C79.5906 26.1989 79.1916 27.8664 78.6097 29.4483C78.3162 30.2873 77.9657 31.0967 77.5616 31.8688C77.1758 32.6815 76.725 33.4487 76.2154 34.1599L75.4545 35.2532C75.183 35.6002 74.8822 35.9168 74.596 36.2507C74.3098 36.5847 74.0218 36.9209 73.7145 37.2298L72.7511 38.1001C71.452 39.2219 70.0354 40.1401 68.5368 40.8317C67.8032 41.1694 67.0517 41.45 66.287 41.6716C65.5334 41.9 64.7614 41.9827 64.0198 42.1372C63.2699 42.2285 62.5227 42.2253 61.7995 42.2459C61.0753 42.2231 60.3705 42.086 59.6831 42.0121C58.4081 41.7848 57.1616 41.3723 55.9722 40.7839C54.9584 40.3451 53.9929 39.7637 53.0967 39.052C52.4055 38.5193 51.7522 37.9208 51.1432 37.2624C50.7533 36.8451 50.3845 36.401 50.0391 35.932L49.671 35.4337C51.6164 37.3583 53.8814 38.7791 56.32 39.6046C56.8696 39.8261 57.435 39.9885 58.0094 40.0898C58.6156 40.229 59.2274 40.3322 59.8423 40.3988C60.4772 40.4107 61.1305 40.488 61.7894 40.4531C62.45 40.3618 63.1291 40.3585 63.8082 40.2356C64.4799 40.055 65.1755 39.9527 65.8518 39.7091L66.864 39.3142C67.2116 39.205 67.5504 39.0594 67.8761 38.879C69.2249 38.2293 70.4971 37.3771 71.6616 36.3432L72.545 35.5741C72.821 35.2999 73.0805 34.9899 73.3501 34.7038C73.6197 34.4177 73.8912 34.1261 74.1396 33.8161L74.838 32.837C75.3036 32.2003 75.728 31.5232 76.1078 30.8114C76.5001 30.1297 76.8445 29.4111 77.1374 28.6629C77.44 27.9485 77.698 27.209 77.9094 26.4502C78.1392 25.7427 78.3159 25.0129 78.4376 24.269C78.5048 23.9068 78.5986 23.5673 78.6428 23.1975C78.687 22.8276 78.71 22.4468 78.7422 22.0813C78.7744 21.7158 78.8121 21.3557 78.8462 21.0022L78.8719 20.7389L78.8784 20.6725C78.8784 20.7378 78.8784 20.6519 78.8784 20.6519V20.5257L78.8912 20.0242C78.9119 17.8641 78.6654 15.712 78.1597 13.6362C77.9711 12.8329 77.7438 12.0427 77.4788 11.2701Z" fill="black"/>
</g>
</g>
<g style="mix-blend-mode:screen" opacity="0.6">
<g style="mix-blend-mode:screen">
<path d="M70.5366 2.68712C70.5366 2.68712 69.9753 2.45865 69.0091 2.0235C68.549 1.79505 67.9233 1.65364 67.2516 1.42519C66.9112 1.33816 66.5431 1.25114 66.1566 1.16411C65.7702 1.09884 65.3561 1.02269 64.9328 0.957418C64.5096 0.924782 64.0587 0.881261 63.5986 0.848626C63.1386 0.859504 62.6693 0.81599 62.1816 0.848626C61.1645 0.900856 60.1524 1.04633 59.1543 1.28377C58.639 1.38167 58.1237 1.57749 57.5993 1.72979C57.0932 1.94736 56.5595 2.11054 56.0534 2.37163C55.0162 2.84242 54.0207 3.43271 53.0813 4.13396C52.6305 4.50383 52.1244 4.84109 51.7195 5.2436L51.0754 5.84191L50.4313 6.52728C48.2092 8.9488 46.5519 12.0059 45.6189 15.4042C45.1779 16.9725 44.8787 18.5916 44.7264 20.2344C44.6712 20.8327 44.6252 21.3222 44.616 21.6486C44.6068 21.9749 44.5884 22.149 44.5884 22.149C44.5884 22.149 44.5607 21.9749 44.5147 21.6486C44.4871 21.4963 44.4687 21.2896 44.4319 21.0611V21.0209C44.4243 20.916 44.4212 20.8107 44.4227 20.7054C44.4225 17.0995 45.2191 13.556 46.7335 10.4259C48.2479 7.29586 50.4275 4.68776 53.0567 2.85992C55.6858 1.03206 58.6732 0.0478704 61.723 0.00477474C64.7728 -0.038321 67.7791 0.861173 70.4445 2.61421C70.5108 2.66534 70.5366 2.68712 70.5366 2.68712Z" fill="white"/>
</g>
</g>
<path d="M146.795 1.23889V27.1518H106.952C106.472 27.1459 105.994 27.2437 105.548 27.4397C105.102 27.6356 104.696 27.9257 104.354 28.2932C104.075 28.5933 103.848 28.9449 103.682 29.3316C104.053 22.7675 106.338 16.5034 110.207 11.4508C114.076 6.39812 119.325 2.82063 125.192 1.23889H146.795Z" fill="#DF232B"/>
<path d="M125.92 66.5927C125.591 73.1897 123.329 79.4987 119.465 84.595C115.601 89.6912 110.339 93.3068 104.449 94.9118H83.837V69.0043H122.536C123.028 69.0114 123.517 68.9098 123.973 68.7061C124.408 68.5128 124.803 68.2261 125.135 67.8629C125.468 67.4975 125.735 67.0664 125.92 66.5927Z" fill="url(#paint0_linear_462_1943)"/>
<path d="M150 65.0351C150.017 69.0315 149.283 72.9896 147.844 76.6665C147.552 77.4066 147.23 78.136 146.881 78.8463C146.871 78.8761 146.861 78.887 146.861 78.9073C146.858 78.9226 146.852 78.937 146.843 78.9493C143.882 85.0384 139.088 89.8345 133.263 92.5327C129.876 94.1215 126.224 94.9302 122.536 94.9078H104.457L104.665 94.8468C110.506 93.2018 115.714 89.5767 119.535 84.4963C123.357 79.4159 125.593 73.144 125.92 66.5887V66.5779C126.265 65.5995 126.272 64.5177 125.938 63.5345C125.93 63.5141 125.92 63.4829 125.91 63.4626C125.73 62.9899 125.467 62.5602 125.135 62.1978C124.795 61.8273 124.389 61.5359 123.942 61.3413C123.495 61.1467 123.017 61.053 122.536 61.0659H106.953C106.178 61.0659 105.403 61.036 104.636 60.9533C104.609 60.9533 104.58 60.9425 104.543 60.9425C101.681 60.6959 98.8758 59.9317 96.2443 58.6813C89.6965 55.6143 84.4826 49.9261 81.6814 42.7933C81.3125 41.8743 80.9906 40.9339 80.7171 39.9763C79.8994 37.1093 79.4885 34.1233 79.4986 31.1213C79.4822 27.1159 80.2252 23.1498 81.6814 19.4711C84.4989 12.3601 89.7091 6.69086 96.2443 3.62512C98.1517 2.71641 100.155 2.06714 102.208 1.69199C102.284 1.6703 102.34 1.6608 102.378 1.64996C102.397 1.64476 102.416 1.64157 102.435 1.64046C103.928 1.36883 105.439 1.23279 106.953 1.23377H125.192C119.325 2.81551 114.076 6.393 110.207 11.4457C106.339 16.4983 104.053 22.7624 103.682 29.3265C103.642 29.4027 103.608 29.482 103.579 29.5637C103.392 30.0557 103.299 30.5837 103.305 31.1159C103.299 31.6732 103.395 32.2261 103.587 32.7427C103.607 32.8002 103.633 32.8551 103.663 32.9067C103.826 33.3186 104.061 33.6923 104.354 34.0075C104.695 34.377 105.101 34.6684 105.547 34.8644C105.993 35.0605 106.471 35.1572 106.953 35.1489H122.536C126.216 35.1276 129.861 35.9219 133.25 37.4833C139.839 40.4973 145.081 46.2004 147.851 53.3699C148.217 54.2992 148.536 55.2495 148.806 56.2168C149.607 59.0748 150.009 62.0473 150 65.0351Z" fill="#DF232B"/>
<g style="mix-blend-mode:multiply" opacity="0.16">
<g style="mix-blend-mode:multiply">
<path d="M125.919 66.5927C125.591 73.1897 123.329 79.4987 119.465 84.595C115.601 89.6912 110.338 93.3068 104.448 94.9118H98.7022C103.524 92.4428 107.781 88.8375 111.164 84.3574C114.547 79.8772 116.972 74.6343 118.262 69.0084H122.533C123.026 69.0154 123.514 68.9139 123.97 68.7101C124.405 68.5168 124.801 68.2301 125.132 67.8669C125.467 67.5007 125.734 67.0681 125.919 66.5927Z" fill="black"/>
</g>
</g>
<g style="mix-blend-mode:multiply" opacity="0.16">
<g style="mix-blend-mode:multiply">
<path d="M130.371 1.23889C125.05 5.54708 114.248 15.4906 111.526 27.1518H106.952C106.472 27.1459 105.994 27.2437 105.548 27.4397C105.102 27.6356 104.696 27.9257 104.354 28.2932C104.075 28.5933 103.848 28.9449 103.682 29.3316C104.053 22.7675 106.338 16.5034 110.207 11.4508C114.076 6.39812 119.325 2.82063 125.192 1.23889H130.371Z" fill="black"/>
</g>
</g>
<g style="mix-blend-mode:multiply" opacity="0.25">
<g style="mix-blend-mode:multiply">
<path d="M146.796 8.99194V27.1574H113.521C116.29 26.8592 119.068 26.6545 121.837 26.5094C124.607 26.3644 127.385 26.2383 130.154 26.1908C132.932 26.0987 135.701 26.1095 138.48 26.0783C140.971 26.1095 143.441 26.1095 145.927 26.1705C145.955 24.9884 145.975 23.8049 146.021 22.6133C146.068 21.1004 146.116 19.5889 146.202 18.0774C146.339 15.0489 146.522 12.015 146.796 8.99194Z" fill="black"/>
</g>
</g>
<g style="mix-blend-mode:screen" opacity="0.7">
<g style="mix-blend-mode:screen">
<path d="M150 65.0353C150.017 69.0315 149.283 72.9896 147.844 76.6666C147.551 77.4068 147.23 78.1361 146.881 78.8464C146.976 78.5685 147.287 77.6832 147.753 76.3262C148.475 74.0186 148.947 71.6276 149.161 69.2011C149.296 67.594 149.324 65.9784 149.247 64.3668C149.152 62.5847 148.925 60.8139 148.567 59.0719C148.381 58.1709 148.151 57.2816 147.877 56.4081C147.555 55.5039 147.234 54.5873 146.912 53.6723C146.191 51.8729 145.304 50.1575 144.266 48.5522C143.255 46.9254 142.085 45.4219 140.778 44.0676C139.518 42.7533 138.152 41.5663 136.695 40.5213C135.313 39.5448 133.863 38.6886 132.357 37.9606C131.001 37.3255 129.601 36.8062 128.171 36.407C125.994 35.8196 123.768 35.4717 121.527 35.3687C119.882 35.2331 118.946 35.1531 118.946 35.1531H122.528C126.208 35.1317 129.854 35.926 133.243 37.4875C139.832 40.5015 145.073 46.2046 147.843 53.374C148.209 54.3033 148.528 55.2537 148.799 56.221C149.601 59.0773 150.006 62.0483 150 65.0353Z" fill="white"/>
</g>
</g>
<g style="mix-blend-mode:multiply" opacity="0.25">
<g style="mix-blend-mode:multiply">
<path d="M101.471 94.9076H83.837V75.3187C84.0538 76.9536 84.1858 78.5722 84.3279 80.2139C84.4412 81.8488 84.5459 83.4837 84.6119 85.1077C84.7066 86.7426 84.7253 88.3789 84.7814 90.0138L84.82 93.838C85.9625 93.8583 87.1061 93.8583 88.2499 93.8895C89.715 93.9519 91.1801 93.9722 92.654 94.0752C95.593 94.2298 98.532 94.4656 101.471 94.9076Z" fill="black"/>
</g>
</g>
<g style="mix-blend-mode:screen" opacity="0.7">
<g style="mix-blend-mode:screen">
<path d="M104.543 60.9423C101.681 60.6957 98.8758 59.9314 96.2443 58.6811C89.6965 55.6142 84.4826 49.9259 81.6814 42.7931C81.3125 41.8742 80.9906 40.9338 80.7171 39.9761C79.8994 37.1091 79.4885 34.1231 79.4986 31.1212C79.4822 27.1157 80.2253 23.1497 81.6814 19.4709C84.4989 12.3599 89.7091 6.69064 96.2443 3.6249C98.1517 2.71619 100.155 2.06692 102.208 1.69177C101.178 1.96131 100.162 2.29074 99.1646 2.67867C92.3972 5.30866 86.7981 10.6332 83.4966 17.5784C81.3133 22.139 80.2856 27.25 80.519 32.386C80.5922 34.9667 81.0029 37.5229 81.7387 39.9775C81.9555 40.6038 82.1636 41.2315 82.3716 41.8483L82.5224 42.3105L82.561 42.4244C82.5697 42.4437 82.576 42.4643 82.5797 42.4854L82.6743 42.7118L83.0331 43.5862C83.5104 44.718 84.0565 45.814 84.6677 46.8668C85.8265 48.8713 87.1935 50.724 88.7417 52.3883C90.1469 53.878 91.6853 55.2113 93.334 56.3684C94.7414 57.3401 96.2174 58.1892 97.7481 58.9075C98.9425 59.4602 100.175 59.9107 101.433 60.255C102.459 60.5409 103.497 60.7703 104.543 60.9423Z" fill="white"/>
</g>
</g>
<g style="mix-blend-mode:screen" opacity="0.7">
<g style="mix-blend-mode:screen">
<path d="M125.192 1.23889C119.325 2.82063 114.076 6.39812 110.207 11.4508C106.338 16.5034 104.053 22.7675 103.682 29.3316C103.642 29.4078 103.608 29.4871 103.579 29.5689L103.655 29.3113C103.626 28.4979 103.626 27.6764 103.626 26.8535C103.682 26.032 103.767 25.2091 103.843 24.3754C103.967 23.5621 104.136 22.7487 104.278 21.9353C104.467 21.1219 104.722 20.3411 104.939 19.5291C105.188 18.7374 105.497 17.9755 105.799 17.1947C106.12 16.4342 106.499 15.7035 106.839 14.9524C107.235 14.2231 107.67 13.5344 108.085 12.8146C108.538 12.1368 109.011 11.4671 109.484 10.8083C109.994 10.1711 110.533 9.56516 111.053 8.94699C111.619 8.3722 112.174 7.79606 112.763 7.24025L114.606 5.7084C115.249 5.24613 115.9 4.81367 116.562 4.37174C117.252 4.00165 117.924 3.6004 118.612 3.2398L120.749 2.33558C121.497 2.09835 122.223 1.86247 122.961 1.65777C123.698 1.49509 124.446 1.36225 125.192 1.23889Z" fill="white"/>
</g>
</g>
<g style="mix-blend-mode:screen" opacity="0.7">
<g style="mix-blend-mode:screen">
<path d="M126.091 66.5779C126.099 67.4211 126.099 68.2439 126.081 69.0763C126.033 69.91 125.939 70.7329 125.854 71.5652C125.722 72.3877 125.571 73.2106 125.4 74.0338C125.211 74.8472 124.965 75.6484 124.747 76.4496C124.498 77.2521 124.172 78.0126 123.875 78.7948C123.555 79.5662 123.186 80.3063 122.826 81.0574C122.439 81.7867 122.005 82.4862 121.589 83.206C121.136 83.8947 120.662 84.5617 120.19 85.2313C119.681 85.8698 119.141 86.4867 118.622 87.113C118.055 87.6999 117.5 88.2761 116.911 88.8414L115.067 90.3841C114.424 90.8468 113.772 91.2986 113.111 91.7397L111.06 92.9015L108.915 93.8369L106.712 94.5364C106.145 94.6597 105.591 94.7831 105.03 94.8861L105.155 94.9065L104.502 94.9892C104.493 95 104.473 95 104.465 95L104.455 94.9065L104.446 94.8143L104.663 94.8455C110.504 93.2004 115.712 89.5753 119.533 84.4948C123.354 79.4145 125.59 73.1427 125.917 66.5874V66.5765C126.101 66.0871 126.191 65.5622 126.181 65.0338C126.25 65.5498 126.219 66.0756 126.091 66.5779Z" fill="white"/>
</g>
</g>
<defs>
<linearGradient id="paint0_linear_462_1943" x1="82.1958" y1="80.7522" x2="121.922" y2="80.7522" gradientUnits="userSpaceOnUse">
<stop stop-color="#DC232B"/>
<stop offset="0.322" stop-color="#DC232B"/>
<stop offset="1" stop-color="#DC232B"/>
</linearGradient>
</defs>
</svg>
