<svg width="25" height="24" viewBox="0 0 25 24" fill="none" xmlns="http://www.w3.org/2000/svg">
<path d="M24.6582 20.4103L19.79 15.8527C19.5703 15.647 19.2725 15.5327 18.96 15.5327H18.1641C19.5117 13.9191 20.3125 11.8894 20.3125 9.68149C20.3125 4.42908 15.7666 0.173218 10.1562 0.173218C4.5459 0.173218 0 4.42908 0 9.68149C0 14.9339 4.5459 19.1898 10.1562 19.1898C12.5146 19.1898 14.6826 18.4401 16.4062 17.1784V17.9235C16.4062 18.2161 16.5283 18.4949 16.748 18.7006L21.6162 23.2582C22.0752 23.6879 22.8174 23.6879 23.2715 23.2582L24.6533 21.9645C25.1123 21.5348 25.1123 20.84 24.6582 20.4103ZM10.1562 15.5327C6.7041 15.5327 3.90625 12.918 3.90625 9.68149C3.90625 6.44959 6.69922 3.83024 10.1562 3.83024C13.6084 3.83024 16.4062 6.44502 16.4062 9.68149C16.4062 12.9134 13.6133 15.5327 10.1562 15.5327Z" fill="white"/>
</svg>
